<?xml version="1.0" encoding="UTF-8"?>
<svg version="1.1" xmlns="http://www.w3.org/2000/svg" width="1024" height="1024">
<path d="M0 0 C337.92 0 675.84 0 1024 0 C1024 337.92 1024 675.84 1024 1024 C686.08 1024 348.16 1024 0 1024 C0 686.08 0 348.16 0 0 Z " fill="#32404B" transform="translate(0,0)"/>
<path d="M0 0 C337.92 0 675.84 0 1024 0 C1024 337.92 1024 675.84 1024 1024 C686.08 1024 348.16 1024 0 1024 C0 686.08 0 348.16 0 0 Z M359 54 C357.7015918 54.4321582 357.7015918 54.4321582 356.37695312 54.87304688 C325.69191431 65.25367622 296.53130303 79.84392086 268.75927734 96.37060547 C266.29642345 97.82495752 263.82073798 99.25066643 261.33203125 100.66015625 C250.67259513 106.72280922 240.7976924 113.63373305 231 121 C230.0711499 121.69706055 230.0711499 121.69706055 229.12353516 122.40820312 C208.8292346 137.69788976 189.63163936 154.33083217 171.625 172.25 C170.97096191 172.89936523 170.31692383 173.54873047 169.64306641 174.21777344 C165.79125623 178.0823412 162.12855971 182.06201695 158.56298828 186.19189453 C156.62340131 188.43565915 154.62609191 190.62356613 152.625 192.8125 C148.68340298 197.18166009 144.92542115 201.67105726 141.23046875 206.25 C139.81503 207.99512938 138.38199283 209.72624571 136.92578125 211.4375 C129.28619851 220.47508402 122.65239867 230.22532168 116 240 C115.51241211 240.71430176 115.02482422 241.42860352 114.52246094 242.16455078 C105.84815926 254.96022465 98.39419466 268.43585908 91 282 C90.52111328 282.8751123 90.04222656 283.75022461 89.54882812 284.65185547 C76.52244834 308.55403347 65.93204501 333.71593938 57.74023438 359.67724609 C56.96786329 362.10084058 56.16389654 364.51268547 55.359375 366.92578125 C40.03840538 413.90254582 34.7621466 463.54404418 34.8125 512.75 C34.81277191 513.75780518 34.81304382 514.76561035 34.81332397 515.80395508 C34.83168466 530.6323366 35.14452317 545.27041138 37 560 C37.1124707 560.93054199 37.22494141 561.86108398 37.34082031 562.81982422 C38.12569779 569.22965695 39.03119973 575.61565746 40 582 C40.09861328 582.68416992 40.19722656 583.36833984 40.29882812 584.07324219 C43.90546762 608.85312544 50.95231841 633.34939128 59 657 C61.69658128 665.02031752 61.69658128 665.02031752 62.921875 668.9765625 C65.03599686 675.73776353 67.76700844 682.06505714 70.83203125 688.44140625 C72.50546612 691.9271338 74.11114452 695.4394186 75.69921875 698.96484375 C82.19631908 713.34780367 89.17160698 727.29657492 97 741 C97.51143555 741.90169922 98.02287109 742.80339844 98.54980469 743.73242188 C109.47688525 762.91778825 121.51309488 781.24771765 135.59130859 798.27197266 C137.50186961 800.61563832 139.34244026 803.0104324 141.1875 805.40576172 C145.95143408 811.57891352 150.95794575 817.40308949 156.296875 823.0859375 C158.24624107 825.18742173 160.11279022 827.30101692 161.96875 829.48046875 C167.00901368 835.26460206 172.46393497 840.64995122 177.88671875 846.07202148 C179.73728967 847.92477468 181.57970076 849.78538706 183.421875 851.64648438 C190.30998559 858.56688226 197.33114051 864.94483 205 871 C206.09035357 871.92275772 207.17496878 872.85240478 208.25 873.79296875 C222.84279891 886.49948257 238.75422292 897.52597235 255 908 C255.79035645 908.51385254 256.58071289 909.02770508 257.39501953 909.55712891 C271.16791318 918.47125936 285.45310561 926.14930232 300.09570312 933.53466797 C302.49121494 934.74329792 304.88042758 935.96261425 307.265625 937.19140625 C328.23388422 947.89096318 350.39209974 956.46406675 373 963 C373.90266602 963.26522461 374.80533203 963.53044922 375.73535156 963.80371094 C419.40616985 976.59271649 464.52977213 983.25602487 510.0625 983.1875 C510.88048065 983.18656342 511.6984613 983.18562683 512.54122925 983.18466187 C550.53924174 983.09157556 588.15974228 979.60861214 624.93505859 969.80908203 C627.96335705 969.00967299 631.00039012 968.25859749 634.04296875 967.515625 C653.14090629 962.75639456 671.70720438 956.2136371 690 949 C690.80824219 948.68144043 691.61648438 948.36288086 692.44921875 948.03466797 C707.97424202 941.87012668 722.94430487 934.71071541 737.6875 926.875 C738.38077393 926.50727478 739.07404785 926.13954956 739.78833008 925.76068115 C751.63359684 919.45713716 762.94485814 912.6136853 774 905 C775.40002383 904.05708073 776.80104849 903.11564557 778.203125 902.17578125 C794.48670271 891.1994869 809.86722633 879.17838798 824.75 866.375 C825.36431885 865.84849854 825.9786377 865.32199707 826.61157227 864.77954102 C830.38447941 861.51036658 833.94951644 858.09808389 837.45507812 854.54443359 C839.18938997 852.81066989 840.9975617 851.20204818 842.875 849.625 C849.54305176 843.85977923 855.59788016 837.57638532 861.328125 830.88671875 C862.94204468 829.06540284 864.62497231 827.37732032 866.375 825.6875 C870.49444541 821.6227375 874.05750918 817.15429617 877.67089844 812.64111328 C879.0980985 810.8788725 880.55061212 809.13984579 882.0078125 807.40234375 C889.78796176 798.07281332 896.77304275 788.36319134 903.49951172 778.25146484 C904.89608596 776.15592178 906.30624246 774.07044598 907.72265625 771.98828125 C913.47035188 763.50947316 918.83077977 754.8419003 924 746 C924.34272949 745.41895508 924.68545898 744.83791016 925.03857422 744.23925781 C930.46281831 735.0318047 935.38616924 725.63716136 940 716 C940.41652832 715.13117187 940.83305664 714.26234375 941.26220703 713.3671875 C959.91131696 674.2006473 973.78140464 632.93016669 981.59130859 590.23242188 C981.85634908 588.78467383 982.12716087 587.33796584 982.40478516 585.89257812 C983.41734266 580.61379501 984.23908327 575.32042566 985 570 C985.13825195 569.09507812 985.27650391 568.19015625 985.41894531 567.2578125 C991.21256124 527.81414292 990.2304917 485.47905157 985 446 C984.87189941 445.030625 984.74379883 444.06125 984.61181641 443.0625 C983.96613519 438.36295359 983.22080961 433.69127739 982.36621094 429.02539062 C981.99515714 426.97321573 981.65435875 424.91787451 981.3203125 422.859375 C979.38689152 411.12546235 976.75781656 399.5643438 974 388 C973.82807129 387.25685547 973.65614258 386.51371094 973.47900391 385.74804688 C967.19670328 358.76853494 957.50711463 332.15321773 946 307 C945.52594727 305.9584375 945.05189453 304.916875 944.56347656 303.84375 C926.63138549 264.74532298 903.50707579 228.8903524 875.28369141 196.47460938 C874.21020096 195.24146326 873.14160782 194.00405613 872.07421875 192.765625 C870.3981522 190.82954812 868.70382151 188.91169516 867 187 C866.27425781 186.18144531 865.54851563 185.36289063 864.80078125 184.51953125 C858.82612823 177.88611098 852.6149429 171.51005708 846.3125 165.1875 C845.51682617 164.38723389 844.72115234 163.58696777 843.90136719 162.76245117 C839.09535803 157.96892126 834.1604265 153.40787837 829 149 C827.88220691 148.02673675 826.76499388 147.05280679 825.6484375 146.078125 C814.18357576 136.14779357 802.3515469 126.80649253 790 118 C788.74712233 117.08761504 787.49453869 116.17482623 786.2421875 115.26171875 C775.534941 107.51255 764.44440201 100.60428841 753 94 C752.23010742 93.55382324 751.46021484 93.10764648 750.66699219 92.64794922 C740.09052615 86.54929392 729.28471699 81.12326587 718.19726562 76.01855469 C716.18033363 75.08359466 714.17435334 74.12950553 712.171875 73.1640625 C675.53520422 55.5587236 635.84683162 43.57557017 596 36 C595.07670898 35.81840332 594.15341797 35.63680664 593.20214844 35.44970703 C515.39516949 20.30763029 433.74632038 29.05347386 359 54 Z " fill="#FEFEFE" transform="translate(0,0)"/>
<path d="M0 0 C0.96196289 0.18288574 1.92392578 0.36577148 2.91503906 0.55419922 C41.1655925 7.86069684 78.55415828 19.87217252 114 36 C114.91442871 36.41314453 115.82885742 36.82628906 116.77099609 37.25195312 C130.53736559 43.51367895 143.82787848 50.57823431 157 58 C157.77359863 58.433125 158.54719727 58.86625 159.34423828 59.3125 C170.40475908 65.53419484 180.74211707 72.53972151 191 80 C192.51207031 81.0828125 192.51207031 81.0828125 194.0546875 82.1875 C205.80081732 90.63109477 217.04754843 99.55772582 228 109 C228.70511719 109.60328125 229.41023437 110.2065625 230.13671875 110.828125 C232.1097508 112.53229524 234.0587478 114.25969072 236 116 C236.89332031 116.80050781 237.78664063 117.60101563 238.70703125 118.42578125 C245.61435848 124.68115843 252.27542671 131.17148714 258.875 137.75 C259.67139893 138.54180664 260.46779785 139.33361328 261.28833008 140.14941406 C266.06473229 144.93833436 270.60831 149.85749007 275 155 C275.96164434 156.10598659 276.92385794 157.21147855 277.88671875 158.31640625 C299.93040062 183.7942044 318.71722725 211.10930338 334.77050781 240.73339844 C335.5858069 242.236424 336.40542849 243.73711344 337.22949219 245.23535156 C360.89534187 288.30682263 378.19651483 337.1583505 384.703125 385.93652344 C385.2335056 389.62301757 385.98548835 393.26561232 386.765625 396.90625 C387.02351479 399.21006544 386.61013352 400.78406917 386 403 C385.4995432 402.49677782 384.9990864 401.99355564 384.48346424 401.4750843 C372.30633985 389.23171001 360.12092488 376.9966491 347.92622089 364.77078438 C342.02915682 358.85825072 336.13493361 352.94293617 330.24731445 347.02099609 C325.11572534 341.85950751 319.97888647 336.70331213 314.83567208 331.5534066 C312.11250582 328.82632903 309.39204313 326.09667216 306.67785072 323.36066055 C304.12266868 320.78510481 301.56052153 318.21668956 298.99287987 315.65355682 C297.60396408 314.26342319 296.22251755 312.86583936 294.84130859 311.4680481 C294.00984818 310.64071167 293.17838776 309.81337524 292.32173157 308.96096802 C291.24461647 307.87970485 291.24461647 307.87970485 290.14574146 306.77659798 C287.85314683 304.87841077 285.76233318 304.048468 283 303 C281.40234375 300.890625 281.40234375 300.890625 279.9375 298.25 C258.98144859 263.6092857 221.42773392 240.38063373 183 230 C140.54356602 219.98806483 96.37719603 226.79852036 58.90234375 248.8203125 C55.26524427 251.10181231 51.75514879 253.38558349 48.421875 256.09765625 C47.58140625 256.76667969 46.7409375 257.43570312 45.875 258.125 C45.15054688 258.74632812 44.42609375 259.36765625 43.6796875 260.0078125 C38.53638545 261.91218381 33.91841129 258.87275933 29.17724609 256.71582031 C26.01107917 255.20861169 22.87811733 253.64714298 19.75 252.0625 C18.60394287 251.48330811 17.45788574 250.90411621 16.27709961 250.30737305 C-8.70997166 237.57175835 -33.30843267 222.8909081 -55 205 C-56.00804687 204.18144531 -57.01609375 203.36289063 -58.0546875 202.51953125 C-70.05025514 192.65765744 -81.47973865 181.98910391 -92.0625 170.625 C-92.56918213 170.08375488 -93.07586426 169.54250977 -93.59790039 168.98486328 C-97 165.2522809 -97 165.2522809 -97 163 C-100.44215726 164.66892473 -102.68347815 166.64893551 -105.10546875 169.53515625 C-109.27810704 174.38309376 -113.72621434 178.91824537 -118.25 183.4375 C-119.51070313 184.69699463 -119.51070313 184.69699463 -120.796875 185.98193359 C-126.60762642 191.73551906 -132.52468129 197.00386751 -139 202 C-140.70993243 203.43559748 -142.41819811 204.87318199 -144.125 206.3125 C-151.45016214 212.29540942 -159.19477336 217.66837093 -167 223 C-167.67272949 223.46164551 -168.34545898 223.92329102 -169.03857422 224.39892578 C-196.81208206 243.32146059 -227.65795536 257.32565545 -259.40429688 268.11572266 C-261.63578575 268.87592325 -263.85823236 269.65599668 -266.078125 270.44921875 C-315.04325502 287.54387317 -366.57647885 290.96786706 -418 290 C-416.88026205 381.71952987 -400.81687008 467.78814563 -322 606 C-321.5973291 606.5475293 -321.1946582 607.09505859 -320.77978516 607.65917969 C-318.22043027 611.13236032 -315.61879562 614.57150609 -313 618 C-312.60071289 618.5254541 -312.20142578 619.0509082 -311.79003906 619.59228516 C-303.17938424 630.92191725 -294.27777033 641.86264985 -284.57666016 652.2800293 C-283.41324143 653.54919698 -282.26391955 654.83132102 -281.12255859 656.12036133 C-275.10287257 662.91061683 -268.80434312 669.38185005 -262.38964844 675.7956543 C-260.62924948 677.55824523 -258.87703618 679.32871039 -257.125 681.09960938 C-251.13606367 687.11752757 -245.09289627 692.8019374 -238.40942383 698.05200195 C-235.83868443 700.13042222 -233.45394923 702.34376735 -231.0625 704.625 C-201.05931341 732.15633315 -163.72822252 753.83561572 -128 773 C-127.20480957 773.42893555 -126.40961914 773.85787109 -125.59033203 774.29980469 C-123.17356642 775.59328488 -120.74574454 776.86283572 -118.3125 778.125 C-117.58192383 778.5159082 -116.85134766 778.90681641 -116.09863281 779.30957031 C-111.55522164 781.62017137 -108.19084867 782.79514618 -103 782 C-99.42729596 780.60909702 -96.1108565 778.83765112 -92.75 777 C-91.7585498 776.46963135 -90.76709961 775.9392627 -89.74560547 775.39282227 C-59.80542368 759.19052945 -30.95117264 740.81414293 -4 720 C-3.45714355 719.58186035 -2.91428711 719.1637207 -2.35498047 718.73291016 C5.74508772 712.48050607 13.63957599 706.02359268 21.40087891 699.35644531 C22.91999079 698.06786736 24.46525663 696.81031044 26.01171875 695.5546875 C34.66325745 688.47615584 42.54136708 680.64695573 50.4375 672.75 C51.00584564 672.18256073 51.57419128 671.61512146 52.15975952 671.03048706 C58.32755857 664.86157463 64.33717628 658.6411754 70 652 C71.4132355 650.4551874 72.82940409 648.91304675 74.25 647.375 C79.28340224 641.78987576 83.87984719 635.91094677 88.47265625 629.96435547 C90.05083331 627.934622 91.64825454 625.92133133 93.25 623.91015625 C105.11140411 608.9534353 116.06214681 593.35289282 126.3125 577.25 C126.80419678 576.49340088 127.29589355 575.73680176 127.80249023 574.95727539 C130.33843342 570.9748959 132.47012547 567.05723677 134.3046875 562.703125 C139.83277185 550.24532389 139.83277185 550.24532389 145.82519531 547.88916016 C153.14509925 546.19319335 160.51208556 545.93017805 168 546 C169.99999995 546.00043671 172.00000008 546.00055366 174 546 C157.52426254 576.35429623 140.39841074 606.77996281 119 634 C118.14516793 635.10886235 117.2910413 636.21826878 116.4375 637.328125 C111.19881307 644.10384418 105.77268337 650.67875995 100.15161133 657.140625 C97.41696242 660.2964415 94.82530789 663.48868642 92.375 666.875 C91.59125 667.90625 90.8075 668.9375 90 670 C89.34 670 88.68 670 88 670 C87.73227783 670.58918213 87.46455566 671.17836426 87.1887207 671.78540039 C85.98568535 674.02666835 84.72212944 675.58968292 82.98046875 677.43359375 C82.37662354 678.07627197 81.77277832 678.7189502 81.15063477 679.38110352 C80.50280029 680.05971436 79.85496582 680.7383252 79.1875 681.4375 C78.18577759 682.49505493 78.18577759 682.49505493 77.16381836 683.57397461 C60.54180018 701.05001859 60.54180018 701.05001859 51.58203125 708.6328125 C49.81404303 710.1212766 49.81404303 710.1212766 47.625 712.4375 C46 714 46 714 44 714 C44 714.66 44 715.32 44 716 C42.51261765 717.35382149 40.95569449 718.63139886 39.375 719.875 C35.52301763 722.94969857 31.7423997 726.06679889 28.0324707 729.31103516 C20.00551747 736.31824061 11.6220242 742.74488725 3 749 C2.36320313 749.4630957 1.72640625 749.92619141 1.0703125 750.40332031 C-16.71241628 763.27765304 -35.01539556 775.9626002 -54.06933594 786.88671875 C-56.30909944 788.1782364 -58.53271848 789.49587632 -60.7578125 790.8125 C-99.53417733 813.56633025 -99.53417733 813.56633025 -111 812 C-114.81724671 810.74514693 -118.38374366 809.05556631 -122 807.3125 C-123.57442871 806.5692749 -123.57442871 806.5692749 -125.18066406 805.81103516 C-159.50279886 789.39765974 -191.94259994 769.06372793 -222.31445312 746.20825195 C-223.99374107 744.93745238 -223.99374107 744.93745238 -226 744 C-225.67 744.99 -225.34 745.98 -225 747 C-224.34 747.33 -223.68 747.66 -223 748 C-223 748.66 -223 749.32 -223 750 C-222.443125 750.2475 -221.88625 750.495 -221.3125 750.75 C-218.57589087 752.22924818 -216.32349131 753.93467439 -214 756 C-214 756.66 -214 757.32 -214 758 C-213.34 758 -212.68 758 -212 758 C-211.9175 758.61875 -211.835 759.2375 -211.75 759.875 C-211.22724866 762.14435598 -211.22724866 762.14435598 -209.22821045 762.87390137 C-206.49871185 764.25334227 -204.76340159 765.98237162 -202.59863281 768.14257812 C-201.7380426 768.99686401 -200.87745239 769.8511499 -199.99078369 770.73132324 C-198.61089264 772.11728699 -198.61089264 772.11728699 -197.203125 773.53125 C-196.24506363 774.48796371 -195.28670557 775.4443804 -194.32806396 776.4005127 C-192.32432736 778.40130563 -190.32424111 780.40565949 -188.32666016 782.41259766 C-185.7620617 784.98862107 -183.18854789 787.55552099 -180.61226273 790.11985016 C-178.63387554 792.0910246 -176.660259 794.06691997 -174.6880722 796.04429626 C-173.2792281 797.45512771 -171.86634682 798.86192389 -170.45343018 800.26867676 C-169.60544861 801.12296265 -168.75746704 801.97724854 -167.88378906 802.85742188 C-166.75605072 803.987547 -166.75605072 803.987547 -165.60552979 805.14050293 C-164 807 -164 807 -164 809 C-163.40670898 809.26876953 -162.81341797 809.53753906 -162.20214844 809.81445312 C-159.99459967 811.00290732 -158.53457118 812.20742389 -156.765625 813.96875 C-156.19199219 814.53980469 -155.61835938 815.11085938 -155.02734375 815.69921875 C-154.44082031 816.29347656 -153.85429687 816.88773438 -153.25 817.5 C-152.34701172 818.39138672 -152.34701172 818.39138672 -151.42578125 819.30078125 C-150.57306641 820.15736328 -150.57306641 820.15736328 -149.703125 821.03125 C-149.18395508 821.55267578 -148.66478516 822.07410156 -148.12988281 822.61132812 C-147 824 -147 824 -147 826 C-146.34 826 -145.68 826 -145 826 C-143.51953125 827.50390625 -143.51953125 827.50390625 -141.8125 829.5625 C-138.39240637 833.58697608 -134.76900337 837.30571255 -131 841 C-130.23816406 841.77085937 -129.47632813 842.54171875 -128.69140625 843.3359375 C-126.30566177 845.69744365 -123.86526209 847.98158823 -121.39257812 850.2512207 C-112.75448322 858.21057523 -104.40254027 866.45739655 -96.07931519 874.74343872 C-94.691305 876.1246041 -93.30158902 877.50405731 -91.91018677 878.88180542 C-89.93490913 880.83922664 -87.96651827 882.80331484 -86 884.76953125 C-85.39449814 885.36788788 -84.78899628 885.96624451 -84.16514587 886.58273315 C-80 890.77089426 -80 890.77089426 -80 893 C-79.34 893 -78.68 893 -78 893 C-76.28769752 894.61974559 -74.62836738 896.2958946 -73 898 C-72.21625 898.78375 -71.4325 899.5675 -70.625 900.375 C-69.75875 901.24125 -68.8925 902.1075 -68 903 C-67.46375 903.52464844 -66.9275 904.04929687 -66.375 904.58984375 C-63.42418052 907.49455668 -60.58887994 910.43457193 -57.90625 913.58984375 C-53.45634674 918.7035154 -48.67703692 923.46924241 -43.875 928.25 C-42.99457031 929.13429688 -42.11414063 930.01859375 -41.20703125 930.9296875 C-40.35238281 931.78304687 -39.49773438 932.63640625 -38.6171875 933.515625 C-37.85003418 934.28165039 -37.08288086 935.04767578 -36.29248047 935.83691406 C-33.05929186 938.88761173 -29.69725956 941.53516029 -26 944 C-29.29112543 944.31836147 -32.582987 944.62846283 -35.875 944.9375 C-36.77347656 945.02451172 -37.67195312 945.11152344 -38.59765625 945.20117188 C-53.88466798 946.62444538 -69.15118293 947.20516601 -84.5 947.1875 C-85.7277565 947.18759064 -85.7277565 947.18759064 -86.98031616 947.18768311 C-101.40316124 947.17264127 -115.64636721 946.48550933 -130 945 C-130.72638672 944.93055176 -131.45277344 944.86110352 -132.20117188 944.78955078 C-137.15372227 944.31483071 -142.07257384 943.67921241 -147 943 C-148.14259277 942.84692383 -149.28518555 942.69384766 -150.46240234 942.53613281 C-170.32556279 939.84054275 -189.61398344 936.1862901 -209 931 C-210.19471924 930.68361572 -210.19471924 930.68361572 -211.41357422 930.36083984 C-216.3211108 929.0424141 -221.16219138 927.55315208 -226 926 C-227.09957031 925.65066406 -228.19914062 925.30132813 -229.33203125 924.94140625 C-243.85260808 920.30394454 -258.16232323 915.52379222 -271.94775391 908.95898438 C-274.08872352 907.95854081 -276.24739664 907.0124992 -278.41796875 906.078125 C-289.58690468 901.26603498 -300.3400713 895.85003775 -311 890 C-311.83934082 889.54109375 -312.67868164 889.0821875 -313.54345703 888.609375 C-352.29579683 867.29741778 -388.44387601 840.06603155 -419.56445312 808.64135742 C-421.52149653 806.66580011 -423.48668329 804.69862045 -425.453125 802.73242188 C-431.50976895 796.6589335 -437.48950353 790.58088776 -443 784 C-443.87643451 782.98986939 -444.7539888 781.98070894 -445.6328125 780.97265625 C-452.58082225 772.85938468 -459.10750321 764.47148574 -465.53222656 755.93945312 C-466.79758873 754.26745761 -468.08073829 752.60895072 -469.3671875 750.953125 C-496.00120551 716.41670604 -516.88301871 675.84902155 -532 635 C-532.60858246 633.67980735 -533.23058883 632.36557923 -533.875 631.0625 C-536.71593286 624.74572883 -538.44389349 618.05878015 -540.31591797 611.40820312 C-541.00843471 608.97030695 -541.72226579 606.53954061 -542.44140625 604.109375 C-548.05706723 585.0179719 -553.03913243 565.69544655 -556 546 C-556.1247168 545.18563477 -556.24943359 544.37126953 -556.37792969 543.53222656 C-557.35959895 537.03381846 -558.21141548 530.52446357 -559 524 C-559.10731445 523.14809082 -559.21462891 522.29618164 -559.32519531 521.41845703 C-563.19802442 489.44610117 -562.05325046 455.99787634 -559 424 C-558.84724609 422.34895264 -558.84724609 422.34895264 -558.69140625 420.66455078 C-555.41041568 386.26984568 -547.70167932 352.80754398 -537 320 C-536.68305176 319.02321289 -536.36610352 318.04642578 -536.03955078 317.04003906 C-529.05665539 295.71849741 -520.58267076 274.80086608 -510 255 C-509.55543457 254.16549316 -509.11086914 253.33098633 -508.65283203 252.47119141 C-505.16359306 245.9462096 -501.60592491 239.46116952 -498 233 C-497.57992676 232.2457373 -497.15985352 231.49147461 -496.72705078 230.71435547 C-484.08179295 208.17461077 -469.1146337 185.28700673 -451.3046875 166.484375 C-448.84344345 163.83123735 -446.5776075 161.0718511 -444.3125 158.25 C-441.30938038 154.52908729 -438.22169735 151.0856563 -434.77490234 147.77612305 C-433.03563829 146.0356628 -431.44245776 144.23230291 -429.84765625 142.359375 C-425.78278477 137.68337778 -421.45320812 133.30597668 -417.0625 128.9375 C-416.30259766 128.17373047 -415.54269531 127.40996094 -414.75976562 126.62304688 C-410.0028652 121.87427096 -405.10463711 117.37052318 -400 113 C-398.91702776 112.05055142 -397.83494923 111.10008216 -396.75390625 110.1484375 C-387.81021657 102.34791575 -378.50488189 95.10142521 -369 88 C-368.34854004 87.51112305 -367.69708008 87.02224609 -367.02587891 86.51855469 C-351.56948683 74.94105805 -335.66772049 64.90082133 -318.76708984 55.54003906 C-316.27881781 54.15517758 -313.80296496 52.75142569 -311.33203125 51.3359375 C-268.00167626 26.62277046 -219.60884194 9.32363874 -170.52392578 0.45605469 C-168.79190773 0.14309186 -167.06115756 -0.1769456 -165.33154297 -0.50292969 C-111.42426735 -10.62181608 -53.86352383 -10.59409971 0 0 Z " fill="#90BDA6" transform="translate(596,36)"/>
<path d="M0 0 C3.94419731 1.33952864 6.37844753 2.9867776 9.34623718 5.89126587 C10.18322144 6.70389389 11.02020569 7.51652191 11.8825531 8.35377502 C12.78715775 9.24717087 13.69176239 10.14056671 14.6237793 11.06103516 C15.59609981 12.01126855 16.56896363 12.96094626 17.54232788 13.91011047 C20.73071467 17.02522745 23.90307421 20.15640991 27.07421875 23.2890625 C28.17027502 24.37034134 29.26637827 25.45157256 30.36252785 26.53275681 C34.92505754 31.03518172 39.48349457 35.54168035 44.03102398 40.05925941 C50.52811779 46.51338074 57.04779765 52.94251194 63.60228604 59.33835566 C68.21992074 63.84803653 72.81002098 68.38461529 77.38091213 72.94166219 C80.10615956 75.65729892 82.84157067 78.36026339 85.60696983 81.03505325 C105.5286634 100.33620442 105.5286634 100.33620442 106.28564453 109.75 C106.26100238 112.1684161 106.17313854 114.58766364 106 117 C106.16872134 118.92742954 106.37301893 120.85226045 106.62182617 122.77099609 C108.1182762 138.72282223 108.35841644 154.61135864 108.3125 170.625 C108.31057605 171.95996082 108.30873559 173.29492176 108.30697632 174.62988281 C108.27067014 193.58143696 107.98191341 212.24796736 105 231 C104.81775879 232.16644043 104.63551758 233.33288086 104.44775391 234.53466797 C103.13584719 242.72504296 101.62570267 250.86658995 100 259 C99.70222656 260.50916992 99.70222656 260.50916992 99.3984375 262.04882812 C92.38030247 297.20968461 81.08032878 331.47618913 66 364 C65.60103516 364.87333984 65.20207031 365.74667969 64.79101562 366.64648438 C49.97938142 399.012648 31.80485528 429.84495879 10 458 C9.59104492 458.53367187 9.18208984 459.06734375 8.76074219 459.6171875 C-0.48159526 471.67180645 -10.1239861 483.42515011 -21.0234375 494.02734375 C-22.94874191 495.94884321 -24.73025507 497.93529758 -26.5 500 C-32.11374821 506.52128257 -38.25216762 512.46614367 -44.78125 518.0625 C-46.98382831 519.98587825 -49.1328808 521.96062445 -51.27587891 523.94995117 C-57.3212906 529.55641257 -63.53098614 534.88205266 -70 540 C-70.98355469 540.77859375 -71.96710938 541.5571875 -72.98046875 542.359375 C-91.54718202 556.84371777 -111.14246182 570.51942288 -131.82666016 581.80957031 C-133.46287438 582.70579369 -135.09461554 583.61019078 -136.72412109 584.51855469 C-152.4536163 593.28216671 -168.35750699 601.12516488 -185 608 C-185.96502441 608.40057617 -186.93004883 608.80115234 -187.92431641 609.21386719 C-201.72821175 614.89851328 -215.74664237 619.70427744 -230.0168457 624.07910156 C-232.03782516 624.70297704 -234.05454296 625.34079793 -236.06713867 625.99121094 C-243.95453073 628.51002703 -251.90441163 630.45466576 -259.9934082 632.18261719 C-262.06543775 632.62562811 -264.13531846 633.0777647 -266.20507812 633.53125 C-273.27904447 635.06891551 -280.35847862 636.46110117 -287.5090332 637.60205078 C-289.4808522 637.91706254 -291.44685037 638.2684877 -293.41015625 638.6328125 C-296.2652707 639.16262755 -299.12594573 639.58613619 -302 640 C-302.90492188 640.18046875 -303.80984375 640.3609375 -304.7421875 640.546875 C-309.38743496 641.11238339 -312.01507203 640.68085625 -315.91015625 637.98828125 C-318.78076242 635.4991036 -321.41095101 632.78998695 -324.03222656 630.04248047 C-326.25146572 627.73898732 -328.52308303 625.49561626 -330.8046875 623.25390625 C-344.42182194 609.83186344 -344.42182194 609.83186344 -350.53320312 602.69335938 C-353.38694148 599.39883054 -356.37379069 596.48705169 -359.8125 593.8125 C-360.534375 593.214375 -361.25625 592.61625 -362 592 C-362 591.34 -362 590.68 -362 590 C-362.66 590 -363.32 590 -364 590 C-365.46632385 588.51490784 -365.46632385 588.51490784 -367.16235352 586.47094727 C-370.73349771 582.27384867 -374.50099122 578.35383241 -378.40234375 574.46484375 C-379.08373917 573.78249161 -379.76513458 573.10013947 -380.46717834 572.39710999 C-381.89705741 570.96655563 -383.32817911 569.53724233 -384.76049805 568.10913086 C-386.93197711 565.94300926 -389.09806325 563.77159826 -391.26367188 561.59960938 C-392.66374202 560.20020013 -394.06412238 558.80110116 -395.46484375 557.40234375 C-396.41991066 556.44424049 -396.41991066 556.44424049 -397.39427185 555.46678162 C-401.2231876 551.65741246 -405.16596873 548.03631441 -409.26351929 544.51705933 C-411.62488127 542.45407861 -413.80821268 540.2411996 -416 538 C-417.1087893 536.91083529 -418.21960735 535.82373349 -419.33203125 534.73828125 C-420.49224929 533.59641694 -421.65240471 532.45448901 -422.8125 531.3125 C-423.40998047 530.73177734 -424.00746094 530.15105469 -424.62304688 529.55273438 C-426.12014673 528.07274424 -427.56488731 526.54017218 -429 525 C-429 524.34 -429 523.68 -429 523 C-429.66 523 -430.32 523 -431 523 C-432.4453125 521.53125 -432.4453125 521.53125 -434.125 519.5 C-437.86702486 515.0953249 -441.87971314 511.04757591 -446 507 C-447.66757407 505.33423414 -449.33396052 503.66729995 -451 502 C-452.45844722 500.54145503 -453.91694914 499.08296477 -455.37548828 497.62451172 C-467.91699219 485.08300781 -480.45849609 472.54150391 -493 460 C-493.57990692 459.46134308 -494.15981384 458.92268616 -494.7572937 458.3677063 C-496 457 -496 457 -496 455 C-496.66 455 -497.32 455 -498 455 C-499.68873879 453.35570171 -501.35305515 451.68615782 -503 450 C-503.763125 449.443125 -504.52625 448.88625 -505.3125 448.3125 C-505.869375 447.879375 -506.42625 447.44625 -507 447 C-507 446.34 -507 445.68 -507 445 C-507.99 444.67 -508.98 444.34 -510 444 C-510 443.01 -510 442.02 -510 441 C-505.87950165 442.41062106 -503.05123253 444.38004537 -499.6875 447.125 C-482.95333238 460.36262435 -464.51092454 471.4553523 -446 482 C-444.81349854 482.67603271 -444.81349854 482.67603271 -443.60302734 483.36572266 C-438.43143642 486.29858642 -433.22740757 489.16796774 -428 492 C-427.20964355 492.42941895 -426.41928711 492.85883789 -425.60498047 493.30126953 C-417.61802557 497.62468788 -409.59912294 501.89898407 -401.3125 505.625 C-400.27738281 506.09164063 -399.24226563 506.55828125 -398.17578125 507.0390625 C-389.43638808 509.68345453 -383.64954819 506.99697201 -375.75 503.1875 C-374.16554077 502.43980347 -374.16554077 502.43980347 -372.54907227 501.67700195 C-348.32361588 490.10231377 -325.32732036 476.0588376 -303.36230469 460.65185547 C-300.91954119 458.9437387 -298.46491513 457.25381982 -296.0078125 455.56640625 C-277.60722386 442.8827635 -259.98885654 429.23178104 -243.48828125 414.14453125 C-242 413 -242 413 -240 413 C-240 412.34 -240 411.68 -240 411 C-238.77734375 409.765625 -238.77734375 409.765625 -236.9375 408.25 C-214.56582208 389.38622404 -214.56582208 389.38622404 -196 367 C-195.34 367 -194.68 367 -194 367 C-193.77957031 366.46890625 -193.55914063 365.9378125 -193.33203125 365.390625 C-191.52697703 362.15105555 -189.12878924 359.51606755 -186.6875 356.75 C-176.90756896 345.48568181 -167.44596285 334.11313879 -159.14648438 321.70117188 C-157.91062284 319.86738074 -156.65318497 318.04988094 -155.390625 316.234375 C-145.82567668 302.47517126 -136.79313189 288.53230542 -128.4375 274 C-127.47710815 272.33046265 -127.47710815 272.33046265 -126.49731445 270.62719727 C-123.64497818 265.65454023 -120.81227041 260.67306014 -118.03125 255.66015625 C-117.58724854 254.87318359 -117.14324707 254.08621094 -116.68579102 253.27539062 C-115.88359194 251.85330332 -115.09388016 250.4240593 -114.32006836 248.98632812 C-110.88269955 242.94143494 -106.77873043 241.45709913 -100.3828125 239.640625 C-98.63071886 239.17515735 -96.87808839 238.71170698 -95.125 238.25 C-85.63251724 235.63359842 -76.82781351 232.34286256 -68 228 C-67.05350586 227.54004639 -67.05350586 227.54004639 -66.08789062 227.07080078 C-53.18154276 220.72616647 -41.69590985 212.83852455 -31.171875 203.01953125 C-29.26795395 201.24915862 -27.32108849 199.58614232 -25.3125 197.9375 C-21.44975393 194.63170801 -18.21833868 190.92702336 -15 187 C-14.24847656 186.09765625 -13.49695313 185.1953125 -12.72265625 184.265625 C-5.87114051 175.73640793 -0.40311906 166.61363123 4.87109375 157.04101562 C5.75795856 155.43760087 6.67104972 153.8486892 7.59375 152.265625 C18.09605724 133.280685 22.40332464 107.74256868 22.375 86.375 C22.37468277 85.37336823 22.37468277 85.37336823 22.37435913 84.35150146 C22.28533387 55.88451381 16.5741157 26.97622794 1.06640625 2.72265625 C0 1 0 1 0 0 Z " fill="#72AC99" transform="translate(880,339)"/>
<path d="M0 0 C6.84640187 -0.50430921 10.46481643 2.26737487 15.64477539 6.46923828 C17.31968275 7.76594076 18.99548532 9.06148764 20.67211914 10.35595703 C21.93258057 11.34474854 21.93258057 11.34474854 23.21850586 12.35351562 C26.97599274 15.26470175 30.83816279 18.02175134 34.70727539 20.78173828 C47.25442891 29.80799983 59.68669485 38.99000293 72.03540039 48.28564453 C74.65934092 50.24592759 77.30350925 52.17457609 79.95727539 54.09423828 C85.25698871 57.92905255 90.48570368 61.85457936 95.69848633 65.80639648 C96.96689611 66.76351333 98.24679923 67.70560553 99.53820992 68.63145351 C101.70727539 70.28173828 101.70727539 70.28173828 103.53458977 72.0774622 C112.09429659 79.64915153 122.56853559 78.25439372 133.31323242 78.16821289 C135.5117366 78.17610797 137.71023158 78.18707329 139.90870667 78.2008667 C145.85653517 78.22952902 151.80357432 78.21538926 157.75140238 78.19342494 C163.97478123 78.17776813 170.19800676 78.20166809 176.4213562 78.22132874 C187.52810198 78.25076889 198.63457678 78.25038486 209.74134301 78.23412753 C219.82118279 78.21969247 229.90087766 78.22149619 239.98071289 78.23901367 C240.64418567 78.2401616 241.30765845 78.24130953 241.99123646 78.24249225 C245.31997849 78.24834202 248.64871982 78.25449568 251.9774611 78.26076114 C279.55411799 78.31178089 307.13059788 78.31315502 334.70727539 78.28173828 C334.76808792 79.3595607 334.82890045 80.43738312 334.89155579 81.54786682 C334.97621632 82.98724248 335.06103836 84.42660865 335.14599609 85.8659668 C335.18547615 86.57335243 335.22495621 87.28073807 335.26563263 88.00955963 C335.65516535 94.51240691 336.62142833 100.83022437 337.89477539 107.21923828 C338.11617187 108.3382251 338.33756836 109.45721191 338.56567383 110.61010742 C340.47883176 119.8737142 343.00237797 128.58364025 346.70727539 137.28173828 C347.17858887 138.40322266 347.17858887 138.40322266 347.65942383 139.54736328 C355.24130405 157.2800086 365.64221159 173.11063733 378.70727539 187.28173828 C379.16537598 187.78366699 379.62347656 188.2855957 380.09545898 188.80273438 C404.91431001 215.69197965 437.5138638 229.84819373 472.70727539 237.28173828 C472.09449927 240.24348951 471.45355017 241.66232611 469.70727539 244.28173828 C467.16271323 244.65499246 467.16271323 244.65499246 463.86851025 244.65253258 C462.61707263 244.65890562 461.36563502 244.66527867 460.07627505 244.67184484 C458.67464309 244.66375915 457.27301264 244.65540794 455.87138367 244.64682007 C454.3924155 244.648677 452.9134485 244.65186332 451.43448573 244.65627158 C447.3554113 244.66464146 443.27656009 244.65433328 439.19750607 244.6411829 C434.80407904 244.6303099 430.4106757 244.63673981 426.01724243 244.64131165 C418.39923992 244.6470679 410.78130092 244.64241035 403.16330528 244.63129807 C392.14340806 244.61567425 381.12359682 244.62119211 370.10369835 244.6329145 C352.21903396 244.65182625 334.33438124 244.66102619 316.44970703 244.66064453 C315.37851888 244.66062709 314.30733074 244.66060965 313.20368234 244.66059168 C301.25338054 244.66013949 289.30308293 244.65681279 277.3527832 244.64971924 C275.74167319 244.64877066 275.74167319 244.64877066 274.09801551 244.64780293 C273.02506109 244.64717036 271.95210668 244.6465378 270.8466385 244.64588606 C268.68307801 244.64461631 266.51951752 244.6433509 264.35595703 244.64208984 C263.28697808 244.64146165 262.21799913 244.64083346 261.11662688 244.64018624 C243.30412584 244.63023889 225.49169441 244.63954263 207.6792081 244.66427386 C196.68501508 244.6787283 185.69106651 244.67659696 174.69688747 244.65331186 C167.16480881 244.63858788 159.6328737 244.64169061 152.10080083 244.65894078 C147.75177753 244.6682992 143.40315219 244.66936378 139.05415916 244.64871025 C135.07470602 244.62995875 131.09596332 244.63406607 127.11653552 244.65653785 C125.67506029 244.66058226 124.23353156 244.6561185 122.79211589 244.64240389 C120.83600123 244.62500328 118.87967318 244.64126031 116.92356396 244.6592617 C115.83598992 244.65877465 114.74841587 244.65828759 113.62788504 244.65778577 C109.75150607 245.4859267 108.29236973 247.36153681 105.70727539 250.28173828 C104.06381519 251.31943591 102.39578628 252.31908116 100.70727539 253.28173828 C98.68912084 254.71484271 96.68987999 256.1748425 94.70727539 257.65673828 C93.19133789 258.78208984 93.19133789 258.78208984 91.64477539 259.93017578 C88.1753483 262.70756289 85.1022476 265.71936941 82.14477539 269.03173828 C80.70727539 270.28173828 80.70727539 270.28173828 78.70727539 270.71923828 C76.52652585 271.11251645 76.52652585 271.11251645 75.26977539 273.21923828 C73.70727539 275.28173828 73.70727539 275.28173828 71.51977539 276.09423828 C67.27731902 277.88549764 63.97508298 280.85279907 60.43579102 283.73681641 C55.26470278 287.85554282 55.26470278 287.85554282 51.70727539 288.28173828 C41.70234651 274.2607464 32.25090634 259.94535159 23.69897461 244.99023438 C22.80568191 243.4512727 21.87024016 241.93696301 20.92993164 240.42626953 C19.70727539 238.28173828 19.70727539 238.28173828 19.70727539 236.28173828 C19.04727539 236.28173828 18.38727539 236.28173828 17.70727539 236.28173828 C17.41852539 235.49798828 17.12977539 234.71423828 16.83227539 233.90673828 C15.85815285 231.18502196 15.85815285 231.18502196 13.70727539 229.28173828 C13.70727539 227.96173828 13.70727539 226.64173828 13.70727539 225.28173828 C13.04727539 225.28173828 12.38727539 225.28173828 11.70727539 225.28173828 C11.33602539 224.39873047 10.96477539 223.51572266 10.58227539 222.60595703 C9.09183869 219.12624004 7.53030811 215.68188159 5.95727539 212.23876953 C-6.38716313 185.16662653 -16.89452864 157.82671331 -25.29272461 129.28173828 C-25.56310547 128.37697754 -25.83348633 127.4722168 -26.11206055 126.54003906 C-30.41595477 111.99574186 -32.94934115 97.03515777 -35.60375977 82.12109375 C-36.21338185 78.72388718 -36.84781906 75.33268264 -37.49194336 71.94189453 C-41.74468167 48.94567686 -42.72958994 25.62976309 -42.29272461 2.28173828 C-41.43630371 2.25668213 -40.57988281 2.23162598 -39.69750977 2.20581055 C-36.47313431 2.10979775 -33.2488746 2.01062735 -30.0246582 1.90942383 C-28.63797712 1.86652188 -27.25125821 1.82482279 -25.86450195 1.78442383 C-16.35615735 1.51918526 -16.35615735 1.51918526 -6.87866211 0.74658203 C-4.58275821 0.51386162 -2.29049684 0.28146452 0 0 Z " fill="#C83549" transform="translate(242.292724609375,345.71826171875)"/>
<path d="M0 0 C3.60396953 3.08798768 7.03225729 6.33514236 10.40234375 9.67529297 C11.33949219 10.59955078 12.27664063 11.52380859 13.2421875 12.47607422 C20.65386603 20.04022452 26.21380528 28.47434315 31.40234375 37.67529297 C31.7698877 38.3251416 32.13743164 38.97499023 32.51611328 39.64453125 C49.937587 71.02212892 52.45438849 105.70419784 42.80859375 140.00341797 C32.74263751 174.25563017 9.23456345 202.30734721 -21.93554688 219.4074707 C-32.50228505 225.02126717 -43.0319265 229.6002221 -54.59765625 232.67529297 C-55.79003906 233.01173828 -56.98242188 233.34818359 -58.2109375 233.69482422 C-77.12331029 238.14359934 -98.78064331 237.30903277 -117.59765625 232.67529297 C-118.80164063 232.42005859 -120.005625 232.16482422 -121.24609375 231.90185547 C-143.52651504 226.72367653 -164.37467952 214.71598906 -180.59765625 198.67529297 C-181.59925781 197.74716797 -181.59925781 197.74716797 -182.62109375 196.80029297 C-202.0038242 178.4135131 -213.95988336 153.69931722 -219.17163086 127.75561523 C-219.47061167 126.29566366 -219.79391689 124.84058337 -220.13500977 123.38989258 C-227.42896463 90.98421771 -217.41097791 56.38113292 -200.59765625 28.67529297 C-198.15459144 25.08332742 -195.5394122 21.86465163 -192.59765625 18.67529297 C-191.55544922 17.4590625 -191.55544922 17.4590625 -190.4921875 16.21826172 C-142.58984968 -38.9754054 -56.46896508 -46.82160827 0 0 Z " fill="#FEFDFE" transform="translate(826.59765625,320.32470703125)"/>
<path d="M0 0 C1.25302876 -0.0039821 2.50605752 -0.00796419 3.79705685 -0.01206696 C5.19526059 -0.00636049 6.59346358 -0.00046929 7.99166584 0.00558662 C9.47093429 0.00471498 10.95020244 0.00296475 12.42946893 0.00040829 C16.50449358 -0.00407727 20.5794137 0.00395497 24.65442502 0.01396441 C29.04500639 0.02257927 33.43558158 0.01968015 37.82616901 0.01815987 C45.43651642 0.01710977 53.0468296 0.0233994 60.65716839 0.03463554 C71.66051654 0.05087069 82.66384809 0.05609651 93.66720692 0.05861153 C111.51823325 0.06299175 129.36924134 0.07630973 147.22025776 0.09521675 C164.56368131 0.11356708 181.9070999 0.12772773 199.2505312 0.13623238 C200.85336557 0.13702055 200.85336557 0.13702055 202.48858043 0.13782464 C207.849066 0.14043466 213.20955161 0.14296209 218.57003725 0.14544845 C263.05998342 0.16619115 307.54990969 0.20142558 352.03983784 0.24609566 C350.78513062 3.46706116 349.524215 6.22624337 347.53983784 9.05859566 C345.58950188 11.90439836 343.70297438 14.76912488 341.91483784 17.71875191 C326.96530048 42.34467123 308.50725372 65.05371887 289.03983784 86.24609566 C288.56804096 86.76300972 288.09624409 87.27992378 287.61015034 87.81250191 C280.14752871 95.9759281 272.47378025 103.9133916 264.66483784 111.74609566 C263.41706562 113.0007563 263.41706562 113.0007563 262.14408588 114.28076363 C257.27070166 119.1419583 252.2819848 123.78612813 247.03983784 128.24609566 C246.24005512 128.93638863 246.24005512 128.93638863 245.42411518 129.64062691 C228.13515114 144.55354085 210.00040207 158.99014724 190.83671284 171.41406441 C188.20138192 173.14027977 185.62302977 174.92704005 183.04789448 176.74072456 C178.33101231 180.05918191 173.60817653 183.18378001 168.50858784 185.89062691 C165.96955509 187.28468444 163.50226762 188.77765809 161.03324604 190.29150581 C154.44277464 194.3200208 147.75780214 198.17140894 140.97733784 201.87109566 C140.18021381 202.32122017 139.38308979 202.77134468 138.56181049 203.23510933 C135.21333877 205.03123665 132.85351585 206.23453176 129.01640034 206.28906441 C124.94837676 204.86365457 121.25764444 202.99443696 117.47733784 200.93359566 C116.65523823 200.49209175 115.83313862 200.05058784 114.9861269 199.59570503 C112.32949196 198.15974027 109.68320216 196.70633548 107.03983784 195.24609566 C106.15119038 194.75576851 105.26254292 194.26544136 104.34696674 193.76025581 C92.89115186 187.40422004 81.81066512 180.69995537 71.03983784 173.24609566 C69.700472 172.32873085 68.36061381 171.41208452 67.02030659 170.49609566 C64.32107977 168.64937438 61.62748492 166.79487037 58.93827534 164.93359566 C56.35133712 163.14432904 53.752438 161.3749945 51.14140034 159.62109566 C50.22898579 159.0034333 50.22898579 159.0034333 49.29813862 158.37329292 C47.64185616 157.25262305 45.98159813 156.13783527 44.32108784 155.02343941 C43.19186909 154.14365425 43.19186909 154.14365425 42.03983784 153.24609566 C42.03983784 152.58609566 42.03983784 151.92609566 42.03983784 151.24609566 C41.32183002 151.00117378 40.60382221 150.75625191 39.86405659 150.50390816 C36.6928424 149.09155551 34.49785938 147.36412279 31.85233784 145.12109566 C28.30891853 142.14613934 24.74928772 139.21806943 21.10233784 136.37109566 C15.7137935 132.07045933 10.67176073 127.42310005 5.63261127 122.72558784 C3.99688627 121.20619889 2.35179217 119.69758704 0.70390034 118.19140816 C-7.56946725 110.62141509 -15.7018636 102.99704351 -23.01484966 94.47656441 C-25.44740792 91.68742632 -27.952329 88.96728052 -30.46016216 86.24609566 C-42.41709037 73.22931239 -53.80449621 59.72789121 -63.96016216 45.24609566 C-58.58938258 39.31971818 -51.94039399 34.16625598 -44.73750591 30.69140816 C-41.71654945 29.40287035 -41.71654945 29.40287035 -39.96016216 26.24609566 C-38.29661427 25.57168435 -36.62949274 24.90606356 -34.96016216 24.24609566 C-32.23431364 22.31805646 -30.17873327 20.53264568 -28.15156841 17.87500191 C-25.8099852 15.06593684 -23.42368512 13.12918086 -20.46016216 10.99609566 C-19.52172466 10.31031441 -18.58328716 9.62453316 -17.61641216 8.91797066 C-15.24057179 7.42258878 -13.63405274 6.84635681 -10.96016216 6.24609566 C-9.86849941 4.31278963 -9.86849941 4.31278963 -8.96016216 2.24609566 C-5.46906583 -0.0813019 -4.1232296 -0.00288237 0 0 Z " fill="#12805B" transform="translate(358.96016216278076,589.7539043426514)"/>
<path d="M0 0 C3.80970014 3.65210463 7.05228403 7.49639711 10.25 11.6875 C14.29206236 16.91043569 18.4822473 21.91057494 22.95703125 26.7734375 C24.82959308 28.81427926 26.63829534 30.89463697 28.4375 33 C35.07749123 40.58638078 42.2347299 47.39225697 50.1171875 53.671875 C52.593248 55.67151193 54.99308647 57.7342751 57.3840332 59.83398438 C86.5549966 85.25026932 121.63106422 102.94407123 156.57421875 118.87890625 C158.73877493 119.87927279 160.87439155 120.91977275 163 122 C158.94652661 126.18347647 154.52713264 129.53755965 149.8125 132.9375 C148.59336914 133.87819336 148.59336914 133.87819336 147.34960938 134.83789062 C141.4398967 139.05508416 141.4398967 139.05508416 137.81103516 138.91625977 C135.37870818 138.16554496 133.2627948 137.16737097 131 136 C130.07485596 135.57211182 129.14971191 135.14422363 128.1965332 134.70336914 C125.01693238 133.21250618 121.8826982 131.64946356 118.75 130.0625 C117.60394287 129.48330811 116.45788574 128.90411621 115.27709961 128.30737305 C90.29002834 115.57175835 65.69156733 100.8909081 44 83 C42.48792969 81.77216797 42.48792969 81.77216797 40.9453125 80.51953125 C28.94974486 70.65765744 17.52026135 59.98910391 6.9375 48.625 C6.43081787 48.08375488 5.92413574 47.54250977 5.40209961 46.98486328 C2 43.2522809 2 43.2522809 2 41 C-1.44215726 42.66892473 -3.68347815 44.64893551 -6.10546875 47.53515625 C-10.27810704 52.38309376 -14.72621434 56.91824537 -19.25 61.4375 C-20.51070313 62.69699463 -20.51070313 62.69699463 -21.796875 63.98193359 C-27.60762642 69.73551906 -33.52468129 75.00386751 -40 80 C-41.70993243 81.43559748 -43.41819811 82.87318199 -45.125 84.3125 C-52.45016214 90.29540942 -60.19477336 95.66837093 -68 101 C-68.67272949 101.46164551 -69.34545898 101.92329102 -70.03857422 102.39892578 C-97.81208206 121.32146059 -128.65795536 135.32565545 -160.40429688 146.11572266 C-162.63578575 146.87592325 -164.85823236 147.65599668 -167.078125 148.44921875 C-216.04325502 165.54387317 -267.57647885 168.96786706 -319 168 C-317.88026205 259.71952987 -301.81687008 345.78814563 -223 484 C-222.5973291 484.5475293 -222.1946582 485.09505859 -221.77978516 485.65917969 C-219.22043027 489.13236032 -216.61879562 492.57150609 -214 496 C-213.40106934 496.78818115 -213.40106934 496.78818115 -212.79003906 497.59228516 C-204.17938424 508.92191725 -195.27777033 519.86264985 -185.57666016 530.2800293 C-184.41324143 531.54919698 -183.26391955 532.83132102 -182.12255859 534.12036133 C-176.10287257 540.91061683 -169.80434312 547.38185005 -163.38964844 553.7956543 C-161.62924948 555.55824523 -159.87703618 557.32871039 -158.125 559.09960938 C-152.13606367 565.11752757 -146.09289627 570.8019374 -139.40942383 576.05200195 C-136.83868443 578.13042222 -134.45394923 580.34376735 -132.0625 582.625 C-102.05931341 610.15633315 -64.72822252 631.83561572 -29 651 C-28.20480957 651.42893555 -27.40961914 651.85787109 -26.59033203 652.29980469 C-24.17356642 653.59328488 -21.74574454 654.86283572 -19.3125 656.125 C-18.58192383 656.5159082 -17.85134766 656.90681641 -17.09863281 657.30957031 C-12.55522164 659.62017137 -9.19084867 660.79514618 -4 660 C-0.42729596 658.60909702 2.8891435 656.83765112 6.25 655 C7.2414502 654.46963135 8.23290039 653.9392627 9.25439453 653.39282227 C39.19457632 637.19052945 68.04882736 618.81414293 95 598 C95.54285645 597.58186035 96.08571289 597.1637207 96.64501953 596.73291016 C104.74508772 590.48050607 112.63957599 584.02359268 120.40087891 577.35644531 C121.91999079 576.06786736 123.46525663 574.81031044 125.01171875 573.5546875 C133.66325745 566.47615584 141.54136708 558.64695573 149.4375 550.75 C150.00584564 550.18256073 150.57419128 549.61512146 151.15975952 549.03048706 C157.32755857 542.86157463 163.33717628 536.6411754 169 530 C170.4132355 528.4551874 171.82940409 526.91304675 173.25 525.375 C178.28340224 519.78987576 182.87984719 513.91094677 187.47265625 507.96435547 C189.05083331 505.934622 190.64825454 503.92133133 192.25 501.91015625 C204.11140411 486.9534353 215.06214681 471.35289282 225.3125 455.25 C225.80419678 454.49340088 226.29589355 453.73680176 226.80249023 452.95727539 C229.33843342 448.9748959 231.47012547 445.05723677 233.3046875 440.703125 C238.83277185 428.24532389 238.83277185 428.24532389 244.82519531 425.88916016 C252.14509925 424.19319335 259.51208556 423.93017805 267 424 C268.99999995 424.00043671 271.00000008 424.00055366 273 424 C256.52426254 454.35429623 239.39841074 484.77996281 218 512 C217.14516793 513.10886235 216.2910413 514.21826878 215.4375 515.328125 C210.19881307 522.10384418 204.77268337 528.67875995 199.15161133 535.140625 C196.41696242 538.2964415 193.82530789 541.48868642 191.375 544.875 C190.59125 545.90625 189.8075 546.9375 189 548 C188.34 548 187.68 548 187 548 C186.73227783 548.58918213 186.46455566 549.17836426 186.1887207 549.78540039 C184.98568535 552.02666835 183.72212944 553.58968292 181.98046875 555.43359375 C181.37662354 556.07627197 180.77277832 556.7189502 180.15063477 557.38110352 C179.50280029 558.05971436 178.85496582 558.7383252 178.1875 559.4375 C177.18577759 560.49505493 177.18577759 560.49505493 176.16381836 561.57397461 C159.54180018 579.05001859 159.54180018 579.05001859 150.58203125 586.6328125 C148.81404303 588.1212766 148.81404303 588.1212766 146.625 590.4375 C145 592 145 592 143 592 C143 592.66 143 593.32 143 594 C141.51261765 595.35382149 139.95569449 596.63139886 138.375 597.875 C134.52301763 600.94969857 130.7423997 604.06679889 127.0324707 607.31103516 C119.00551747 614.31824061 110.6220242 620.74488725 102 627 C101.36320312 627.4630957 100.72640625 627.92619141 100.0703125 628.40332031 C82.28758372 641.27765304 63.98460444 653.9626002 44.93066406 664.88671875 C42.69090056 666.1782364 40.46728152 667.49587632 38.2421875 668.8125 C-0.53417733 691.56633025 -0.53417733 691.56633025 -12 690 C-15.81724671 688.74514693 -19.38374366 687.05556631 -23 685.3125 C-24.57442871 684.5692749 -24.57442871 684.5692749 -26.18066406 683.81103516 C-67.00543952 664.28799646 -105.54783779 639.51798889 -140.22119141 610.47460938 C-142.5285331 608.56185288 -144.88620923 606.71731036 -147.25 604.875 C-152.90894569 600.37661775 -158.13261151 595.42044492 -163.40478516 590.48193359 C-165.76329745 588.29090671 -168.16788606 586.15143735 -170.5625 584 C-176.29328363 578.75188932 -181.80987596 573.29861767 -187.3125 567.8125 C-188.16078369 566.96880859 -189.00906738 566.12511719 -189.88305664 565.25585938 C-194.2426272 560.88556047 -198.4547248 556.44858864 -202.47827148 551.7668457 C-204.5550918 549.35549505 -206.71567435 547.02495184 -208.875 544.6875 C-217.03678965 535.72432617 -224.47863036 526.21127592 -231.80761719 516.56591797 C-232.88952252 515.14508652 -233.9794687 513.7303868 -235.0703125 512.31640625 C-270.14750256 466.36928847 -299.46176136 414.27201317 -317.31103516 359.1262207 C-318.05144971 356.84122057 -318.82966903 354.57131269 -319.61328125 352.30078125 C-329.97230614 322.02708429 -336.72414662 291.1793026 -341.1937561 259.53479004 C-341.7017493 255.96555277 -342.25748531 252.41347557 -342.90625 248.8671875 C-347.54194653 223.13291323 -347.18009164 196.24737845 -347.1875 170.1875 C-347.18849701 169.25115723 -347.18949402 168.31481445 -347.19052124 167.35009766 C-347.18937041 157.86053392 -347.17961624 148.43285759 -346 139 C-344.67150024 139.21112427 -344.67150024 139.21112427 -343.31616211 139.42651367 C-330.0811251 141.34048761 -316.86157776 141.33803108 -303.51098633 141.31567383 C-299.60143662 141.3125313 -295.69265893 141.33598519 -291.78320312 141.36132812 C-200.03373456 141.59076241 -103.05422267 106.63056161 -37 42 C-36.40783691 41.4229834 -35.81567383 40.8459668 -35.20556641 40.25146484 C-28.86836466 34.05682841 -22.69836662 27.79373298 -17 21 C-16.1166426 19.96810133 -15.23245398 18.93691393 -14.34765625 17.90625 C-9.35824942 12.07641544 -4.50907372 6.21520973 0 0 Z " fill="#FCFDFD" transform="translate(497,158)"/>
<path d="M0 0 C4.67364906 1.55788302 7.21024844 4.98460514 10.1875 8.8125 C13.8170683 13.24737877 18.49458389 16.50979547 23 20 C24.54318457 21.24812559 26.08484541 22.49813741 27.625 23.75 C38.46143458 32.39536865 49.49885938 40.57146203 61.26464844 47.90576172 C63.06814826 49.04297137 64.85188634 50.20669322 66.6328125 51.37890625 C72.53345415 55.25429745 78.40723462 58.93059506 84.81640625 61.9296875 C87 63 87 63 89.20703125 64.33203125 C93.09591598 66.65448409 97.1097161 68.71828946 101.125 70.8125 C108.12076988 74.47615354 115.08846373 78.17924062 122 82 C120.59614027 85.172723 118.91428166 87.27635076 116.5 89.75 C93.27464197 115.42013256 83.4547494 151.73714331 81.453125 185.484375 C81.40881348 186.21253418 81.36450195 186.94069336 81.31884766 187.69091797 C81.21133382 189.4605376 81.10548838 191.23025847 81 193 C52.11451938 193.18699281 23.22912966 193.32801016 -5.6568346 193.41449738 C-8.32843375 193.42270922 -11.00003252 193.43098653 -13.67163086 193.43945312 C-14.66766338 193.44260085 -14.66766338 193.44260085 -15.68381777 193.44581217 C-25.75413814 193.47841803 -35.82415507 193.53456099 -45.89428711 193.60351562 C-57.58641985 193.68332526 -69.27827998 193.73488302 -80.97067755 193.75270796 C-87.16022125 193.76312542 -93.34898515 193.78755821 -99.53827858 193.84584045 C-105.36857292 193.90029536 -111.19776911 193.91686136 -117.02829361 193.90486145 C-119.1635975 193.90705548 -121.29893954 193.92287815 -123.4340229 193.9536438 C-142.94317508 194.22088325 -142.94317508 194.22088325 -150.94839001 187.02324677 C-151.6254213 186.35557533 -152.3024526 185.6879039 -153 185 C-154.38027376 183.93780205 -155.77355792 182.89195031 -157.1875 181.875 C-158.45878457 180.91726533 -159.72961844 179.95893213 -161 179 C-166.27562268 175.03106947 -171.57681821 171.10417786 -176.92578125 167.234375 C-180.96394776 164.29939248 -184.98205907 161.33758546 -189 158.375 C-189.81082031 157.7773584 -190.62164062 157.1797168 -191.45703125 156.56396484 C-195.62564875 153.49058952 -199.79238506 150.41469198 -203.95703125 147.3359375 C-211.06035664 142.08837186 -218.16870115 136.85552089 -225.375 131.75 C-230.07736048 128.40217237 -234.75442898 125.02254962 -239.375 121.5625 C-239.94138184 121.1490332 -240.50776367 120.73556641 -241.09130859 120.30957031 C-242.6484375 119.12890625 -242.6484375 119.12890625 -245 117 C-245 116.01 -245 115.02 -245 114 C-244.36835938 113.90501221 -243.73671875 113.81002441 -243.0859375 113.7121582 C-219.34984397 110.11027441 -196.20556701 105.34283874 -173.08496094 98.85986328 C-170.15744825 98.04388515 -167.22463479 97.25124924 -164.2890625 96.46484375 C-153.11605603 93.43145288 -142.6125599 89.60673822 -132 85 C-130.33626548 84.34665024 -128.67001277 83.69963092 -127 83.0625 C-114.69085797 78.15970614 -102.79947088 72.03905383 -91.00488281 66.02099609 C-89.67298849 65.34272258 -88.339006 64.66853333 -87.00292969 63.99853516 C-71.21887248 56.06817713 -55.97859315 46.81814501 -42 36 C-41.22011719 35.40574219 -40.44023437 34.81148438 -39.63671875 34.19921875 C-29.56981942 26.66864207 -29.56981942 26.66864207 -20.3046875 18.234375 C-19 17 -19 17 -17 17 C-17 16.34 -17 15.68 -17 15 C-15.34191655 13.52483679 -13.62153953 12.119287 -11.875 10.75 C-7.63504103 7.36350374 -3.73159835 3.93330637 0 0 Z " fill="#222121" transform="translate(496,231)"/>
<path d="M0 0 C0.85309578 0.00291284 1.70619157 0.00582568 2.58513874 0.00882679 C3.48437468 0.00797237 4.38361063 0.00711794 5.31009614 0.00623763 C8.34730764 0.00458006 11.38446486 0.01010869 14.42167133 0.01555592 C16.58927894 0.01583776 18.75688665 0.01568012 20.92449421 0.01511341 C26.82921365 0.01482531 32.73391296 0.02072414 38.63862771 0.02768737 C44.8019392 0.03391875 50.9652511 0.03452454 57.12856525 0.03571278 C68.80872244 0.03882674 80.48887032 0.04704099 92.16902339 0.05706227 C105.4626257 0.06822141 118.75622775 0.07373335 132.04983383 0.0787577 C159.40417221 0.08922355 186.7585023 0.10682423 214.11283344 0.12908131 C214.17364597 1.20690373 214.2344585 2.28472615 214.29711384 3.39520985 C214.38177437 4.83458551 214.46659641 6.27395168 214.55155414 7.71330982 C214.5910342 8.42069546 214.63051426 9.1280811 214.67119068 9.85690266 C215.0607234 16.35974993 216.02698638 22.6775674 217.30033344 29.06658131 C217.52172992 30.18556813 217.74312641 31.30455494 217.97123188 32.45745045 C219.88438981 41.72105723 222.40793602 50.43098328 226.11283344 59.12908131 C226.42704242 59.87673756 226.74125141 60.62439381 227.06498188 61.39470631 C234.6468621 79.12735163 245.04776964 94.95798036 258.11283344 109.12908131 C258.57093403 109.63101002 259.02903461 110.13293873 259.50101703 110.6500774 C284.31986806 137.53932267 316.91942185 151.69553675 352.11283344 159.12908131 C351.50005732 162.09083254 350.85910822 163.50966914 349.11283344 166.12908131 C346.575342 166.5016768 346.575342 166.5016768 343.29133648 166.49822479 C342.04378216 166.50419794 340.79622784 166.51017109 339.51086885 166.51632524 C338.11365218 166.50776499 336.71643719 166.49892818 335.31922382 166.48984486 C333.84494229 166.49115196 332.37066142 166.49377661 330.8963843 166.49761236 C326.83045273 166.50434817 322.76475643 166.49228241 318.69885486 166.47727817 C314.3198442 166.46436644 309.94084764 166.46870381 305.56182331 166.470985 C297.96999298 166.47256082 290.37823979 166.46311939 282.78642887 166.44627148 C271.80985133 166.42192782 260.83331122 166.41408097 249.85670961 166.4103075 C232.04948493 166.40373573 214.2423014 166.3837549 196.43509907 166.35539967 C179.13334335 166.32787787 161.8315988 166.3066351 144.52982563 166.29387623 C143.46399365 166.29308806 142.39816168 166.29229989 141.30003177 166.29148784 C135.95325967 166.28757283 130.60648749 166.28378168 125.25971526 166.28005213 C80.87739281 166.24893361 36.49511525 166.19607809 -7.88716656 166.12908131 C-4.89610612 163.10549885 -1.98087568 160.29945695 1.44877094 157.78142506 C2.25830219 157.18217213 3.06783344 156.5829192 3.90189594 155.96550709 C5.181935 155.02553883 5.181935 155.02553883 6.48783344 154.06658131 C12.78359621 149.39852029 19.01980536 144.68434849 25.11283344 139.75408131 C30.38638607 135.48986474 35.73765748 131.36097592 41.18314594 127.31658131 C44.18403012 125.07592112 47.15056309 122.79550672 50.11283344 120.50408131 C55.71405887 116.17307677 61.37797247 111.92883708 67.05033344 107.69158131 C74.16757715 102.37235701 81.20237779 96.9657111 88.16752094 91.44939381 C91.77021505 88.61119712 95.4263012 85.85711516 99.11283344 83.12908131 C95.1598352 78.96116277 90.88649584 75.51521658 86.30033344 72.06658131 C85.55259662 71.50003834 84.80485981 70.93349537 84.0344643 70.34978443 C81.73006941 68.60578695 79.42155895 66.86733975 77.11283344 65.12908131 C75.76630251 64.10978352 74.41994049 63.09026256 73.07377094 62.07048756 C66.08742769 56.79189771 59.03672936 51.6129201 51.92533344 46.50408131 C45.12366006 41.61596262 38.44415828 36.6087606 31.83353657 31.46404225 C28.50101184 28.87859315 25.15017161 26.31703208 21.80033344 23.75408131 C21.09038227 23.2101775 20.3804311 22.66627369 19.64896625 22.10588795 C15.98694277 19.30559005 12.3120144 16.52467735 8.61283344 13.77361256 C7.88878315 13.2346233 7.16473285 12.69563404 6.41874164 12.14031178 C5.04449918 11.11940975 3.66815372 10.10133019 2.28934711 9.08660084 C-1.02234292 6.62697882 -4.05943655 4.1562482 -6.88716656 1.12908131 C-5.04545961 -0.71262564 -2.45091277 0.00635122 0 0 Z " fill="#FDFDFD" transform="translate(362.8871665596962,423.8709186911583)"/>
<path d="M0 0 C0.99338379 0.48339844 0.99338379 0.48339844 2.00683594 0.9765625 C16.74897565 8.22607049 29.22266316 17.60722926 41 29 C41.93714844 29.88558594 42.87429688 30.77117187 43.83984375 31.68359375 C65.37600643 52.49483651 81.45473476 80.51923962 87 110 C87.13680176 110.69818848 87.27360352 111.39637695 87.41455078 112.11572266 C91.77126959 135.03884182 92.17026528 159.41100306 86 182 C85.82388184 182.66789551 85.64776367 183.33579102 85.46630859 184.02392578 C84.3993034 188.04509454 83.22434182 192.02438055 82 196 C81.79342773 196.75732422 81.58685547 197.51464844 81.37402344 198.29492188 C79.67695264 204.36494274 77.3792014 209.71829789 74.375 215.25 C73.93623535 216.06847412 73.4974707 216.88694824 73.04541016 217.73022461 C62.80719898 236.58127112 49.84860707 254.4912938 33 268 C32.03449219 268.77988281 31.06898438 269.55976562 30.07421875 270.36328125 C7.12332807 288.61967156 -19.9751756 300.64998851 -49 305 C-50.19971436 305.18119385 -51.39942871 305.3623877 -52.63549805 305.54907227 C-62.64524315 306.92952458 -72.40646939 307.24406457 -82.5 307.125 C-84.01692103 307.11492835 -85.5338487 307.10581005 -87.05078125 307.09765625 C-90.70066308 307.07602408 -94.3502859 307.0417367 -98 307 C-98 306.34 -98 305.68 -98 305 C-98.60585938 304.9575415 -99.21171875 304.91508301 -99.8359375 304.87133789 C-106.1244115 304.34830616 -111.94767148 303.20060464 -118 301.4375 C-119.35424072 301.04594727 -119.35424072 301.04594727 -120.73583984 300.64648438 C-129.8713875 297.90053941 -138.4516273 294.20564017 -147 290 C-148.01320313 289.50757813 -149.02640625 289.01515625 -150.0703125 288.5078125 C-183.92760993 271.03626252 -210.59170719 239.95902039 -225 205 C-225.26119629 204.37931641 -225.52239258 203.75863281 -225.79150391 203.11914062 C-240.16726066 168.27635525 -238.94210748 129.74405493 -229 94 C-228.53787109 92.329375 -228.53787109 92.329375 -228.06640625 90.625 C-225.41199861 81.94213769 -221.2628832 73.98284229 -217 66 C-216.43152344 64.93394531 -215.86304688 63.86789062 -215.27734375 62.76953125 C-208.29584323 50.27545113 -199.542358 40.28411217 -189.5 30.1875 C-188.6025708 29.28451172 -187.7051416 28.38152344 -186.78051758 27.45117188 C-180.25660215 21 -180.25660215 21 -178 21 C-178 20.34 -178 19.68 -178 19 C-174.72875404 16.50163084 -171.21823586 14.35874412 -167.75292969 12.13964844 C-166.07926334 11.05153221 -164.43326797 9.92120398 -162.7890625 8.7890625 C-114.9075666 -23.62477677 -51.20608037 -25.22988821 0 0 Z M-177.75 58.875 C-194.81613002 78.52596358 -206.55189312 105.9902044 -208 132 C-208.05446289 132.90395508 -208.10892578 133.80791016 -208.16503906 134.73925781 C-210.14664701 173.26221492 -197.17994497 207.33675342 -172 236 C-171.27538574 236.82975342 -171.27538574 236.82975342 -170.53613281 237.67626953 C-158.42029092 251.2971064 -142.51684374 260.62712243 -126 268 C-124.92621094 268.48082031 -123.85242188 268.96164062 -122.74609375 269.45703125 C-98.42703278 279.53163598 -66.35847869 282.36213897 -41 275 C-40.25733887 274.7848877 -39.51467773 274.56977539 -38.74951172 274.34814453 C-2.46982248 263.51937406 28.45984844 240.24828422 46.75 206.875 C63.6619296 174.62729679 66.44554477 137.7758041 55.75 103.1875 C52.85055681 95.09726033 49.14542833 87.51381632 45 80 C44.45714355 79.00782471 44.45714355 79.00782471 43.90332031 77.99560547 C27.29150758 48.18606422 -1.65436549 26.89372428 -34 17 C-87.67152743 1.85648783 -140.07601879 19.04635435 -177.75 58.875 Z " fill="#117052" transform="translate(813,278)"/>
<path d="M0 0 C3.59288602 0.77380798 5.22964707 1.84502795 7.85546875 4.45703125 C8.55994141 5.15763672 9.26441406 5.85824219 9.99023438 6.58007812 C11.07788086 7.68512695 11.07788086 7.68512695 12.1875 8.8125 C12.92419922 9.53759766 13.66089844 10.26269531 14.41992188 11.00976562 C15.12052734 11.71423828 15.82113281 12.41871094 16.54296875 13.14453125 C17.18258545 13.78753174 17.82220215 14.43053223 18.48120117 15.09301758 C20.17773978 17.22316757 20.99030478 18.25916146 21 21 C19.2175293 23.38183594 19.2175293 23.38183594 16.57421875 25.984375 C16.11143021 26.44483215 15.64864166 26.90528931 15.17182922 27.37969971 C14.19142441 28.35036243 13.20500601 29.31498306 12.21313477 30.27392578 C10.69150366 31.7461264 9.18938374 33.23619639 7.68945312 34.73046875 C0.31098575 42 0.31098575 42 -2 42 C-2 42.66 -2 43.32 -2 44 C-2.66 44 -3.32 44 -4 44 C-4 44.66 -4 45.32 -4 46 C-4.66 46 -5.32 46 -6 46 C-6.20625 46.53625 -6.4125 47.0725 -6.625 47.625 C-8.53250426 50.91978009 -11.04819384 53.59363628 -14 56 C-14.66 56 -15.32 56 -16 56 C-16 56.66 -16 57.32 -16 58 C-18.41266471 60.61946454 -20.89368839 62.91593966 -23.6875 65.125 C-26.19153669 66.96561073 -26.19153669 66.96561073 -28 70 C-28.66 70 -29.32 70 -30 70 C-30.25691809 70.58195759 -30.51383617 71.16391518 -30.77853966 71.76350784 C-32.11260638 74.20618212 -33.57445085 75.82063398 -35.54336548 77.78387451 C-36.27814621 78.52140457 -37.01292694 79.25893463 -37.76997375 80.01881409 C-38.9794593 81.21751381 -38.9794593 81.21751381 -40.21337891 82.44042969 C-41.48665794 83.7141468 -41.48665794 83.7141468 -42.78565979 85.01359558 C-45.11038921 87.33717119 -47.43949345 89.65625126 -49.77061892 91.97340679 C-52.20721389 94.39749135 -54.63813871 96.82724848 -57.06967163 99.25640869 C-61.67322422 103.85374743 -66.28185087 108.44596453 -70.89232385 113.03636193 C-76.1416818 118.26335793 -81.38535552 123.49604043 -86.6285603 128.72920752 C-97.41272936 139.49247673 -108.20401184 150.24858507 -119 161 C-124.40427248 157.12855022 -129.28210533 153.01899529 -133.98266602 148.32373047 C-134.62917618 147.68554382 -135.27568634 147.04735718 -135.94178772 146.38983154 C-138.05119513 144.30428635 -140.15308099 142.21137523 -142.25390625 140.1171875 C-143.72453216 138.65553655 -145.19523136 137.19395935 -146.66600037 135.73245239 C-149.73326541 132.6816082 -152.79617202 129.62645991 -155.85668945 126.56884766 C-159.78603112 122.64492408 -163.73133616 118.73746986 -167.6806345 114.83364677 C-170.71638717 111.82754842 -173.74091155 108.81034637 -176.76237297 105.78989029 C-178.21322226 104.34325599 -179.66820651 102.9007567 -181.12732124 101.46245956 C-183.15746096 99.4590285 -185.17136233 97.44057058 -187.18188477 95.41748047 C-187.79006042 94.8241391 -188.39823608 94.23079773 -189.02484131 93.61947632 C-190.66847229 91.94625854 -190.66847229 91.94625854 -193 89 C-192.54077402 85.2139368 -190.87296705 83.52023444 -188.18359375 80.890625 C-187.41982422 80.13652344 -186.65605469 79.38242187 -185.86914062 78.60546875 C-185.06669922 77.82816406 -184.26425781 77.05085938 -183.4375 76.25 C-182.63119141 75.45722656 -181.82488281 74.66445313 -180.99414062 73.84765625 C-179.00266222 71.89152954 -177.00452279 69.94274281 -175 68 C-171.93443143 69.36578915 -169.85041362 70.91158026 -167.50390625 73.30078125 C-166.54194336 74.27241211 -166.54194336 74.27241211 -165.56054688 75.26367188 C-164.90119141 75.93978516 -164.24183594 76.61589844 -163.5625 77.3125 C-162.90701172 77.97701172 -162.25152344 78.64152344 -161.57617188 79.32617188 C-160.34214194 80.57753022 -159.11019079 81.83094482 -157.88110352 83.0871582 C-155.60124764 85.40548017 -153.30102702 87.70268032 -151 90 C-149.8621278 91.13768118 -148.7243587 92.27546548 -147.58666992 93.41333008 C-146.96640427 94.03359573 -146.34613861 94.65386139 -145.70707703 95.29292297 C-137.13805135 103.86194865 -128.56902568 112.43097432 -120 121 C-115.11556164 116.89978189 -110.50045893 112.64850231 -106 108.1328125 C-105.0409375 107.17518509 -105.0409375 107.17518509 -104.0625 106.19821167 C-102.72012585 104.85651346 -101.37899535 103.5135699 -100.0390625 102.16943359 C-98.00892102 100.13394452 -95.97350711 98.10383877 -93.9375 96.07421875 C-92.62467937 94.76073706 -91.31216911 93.44694507 -90 92.1328125 C-89.1028125 91.23866135 -89.1028125 91.23866135 -88.1875 90.32644653 C-85.25667871 87.37962798 -82.43684513 84.38349719 -79.73048401 81.22850037 C-76.2622623 77.24888568 -72.62184701 73.492965 -68.87475586 69.77709961 C-68.20062149 69.10442551 -67.52648712 68.4317514 -66.83192444 67.73869324 C-65.38225934 66.29280476 -63.93144125 64.84807151 -62.47956657 63.40440178 C-60.17720334 61.11491383 -57.87807632 58.8222189 -55.57972717 56.52870178 C-50.70179623 51.66214321 -45.81994163 46.79953259 -40.9375 41.9375 C-35.27230419 36.29596659 -29.60876228 30.65279324 -23.94943428 25.005373 C-21.69262022 22.75500518 -19.43279837 20.5076885 -17.1728363 18.26048279 C-15.78035847 16.87163979 -14.38802214 15.4826549 -12.99584961 14.09350586 C-12.37386688 13.47668945 -11.75188416 12.85987305 -11.11105347 12.22436523 C-7.19521313 8.30899507 -3.55813018 4.2438551 0 0 Z " fill="#137054" transform="translate(824,342)"/>
<path d="M0 0 C-19.78460064 3.64936369 -38.8873021 5.28925017 -59 3 C-59 2.67 -59 2.34 -59 2 C-57.79351807 1.97494385 -56.58703613 1.9498877 -55.34399414 1.92407227 C-50.88424339 1.83017477 -46.42465487 1.72991167 -41.96508789 1.62768555 C-40.03185815 1.58426959 -38.09858841 1.54259958 -36.1652832 1.50268555 C-33.39261798 1.44514369 -30.62015543 1.3814038 -27.84765625 1.31640625 C-26.97786636 1.29969376 -26.10807648 1.28298126 -25.21192932 1.26576233 C-21.28884034 1.54973787 -21.28884034 1.54973787 -18 0 C-15.73493088 -0.26372085 -13.46196727 -0.46103223 -11.1875 -0.625 C-9.32158203 -0.76808594 -9.32158203 -0.76808594 -7.41796875 -0.9140625 C-4.60356127 -0.98482475 -2.63107091 -0.88806927 0 0 Z " fill="#296D5B" transform="translate(775,581)"/>
<path d="M0 0 C4.12498468 -0.02938023 8.24994191 -0.04692535 12.375 -0.0625 C13.53128906 -0.07087891 14.68757812 -0.07925781 15.87890625 -0.08789062 C22.65400559 -0.10702932 29.27639726 0.14777999 36 1 C36 1.33 36 1.66 36 2 C23.70151733 3.0757538 12.22076204 2.74788677 0 1 C0 0.67 0 0.34 0 0 Z " fill="#267C60" transform="translate(726,261)"/>
<path d="M0 0 C0.33 0.66 0.66 1.32 1 2 C-6.05024311 10.36628849 -6.05024311 10.36628849 -9 13 C-9.66 13 -10.32 13 -11 13 C-11.20625 13.556875 -11.4125 14.11375 -11.625 14.6875 C-13.55000774 17.92501302 -16.03850902 19.68231141 -19 22 C-19.66 21.67 -20.32 21.34 -21 21 C-14.07 14.07 -7.14 7.14 0 0 Z " fill="#458571" transform="translate(777,390)"/>
<path d="M0 0 C0.33 0 0.66 0 1 0 C1.11028714 12.38100347 1.07650471 24.65864238 0 37 C-1.485 37.495 -1.485 37.495 -3 38 C-2.86722656 36.93265625 -2.73445312 35.8653125 -2.59765625 34.765625 C-1.20848125 23.18741597 -0.46210487 11.64990704 0 0 Z " fill="#367461" transform="translate(875,412)"/>
<path d="M0 0 C0.33 0.66 0.66 1.32 1 2 C-0.375 4 -0.375 4 -2 6 C-2.66 6 -3.32 6 -4 6 C-4.25523437 6.59941406 -4.51046875 7.19882812 -4.7734375 7.81640625 C-6.12492115 10.22239147 -7.42637167 11.3043625 -9.625 12.9375 C-12.57562922 15.25136986 -12.57562922 15.25136986 -13.4375 18.875 C-13.293125 19.57625 -13.14875 20.2775 -13 21 C-13.99 20.34 -14.98 19.68 -16 19 C-15.42118732 15.45177554 -14.17307641 13.81577197 -11.62109375 11.328125 C-10.94755859 10.66425781 -10.27402344 10.00039063 -9.58007812 9.31640625 C-8.87302734 8.63449219 -8.16597656 7.95257813 -7.4375 7.25 C-6.72658203 6.55261719 -6.01566406 5.85523438 -5.28320312 5.13671875 C-3.52869286 3.4175342 -1.76756648 1.70574128 0 0 Z " fill="#337862" transform="translate(647,412)"/>
<path d="M0 0 C0 4.8490458 -3.3489774 7.28387514 -6.5 10.75 C-8.95685988 12.96117389 -9.90751749 13.39722798 -13 14 C-8.88380164 9.08064098 -4.59589638 4.47352044 0 0 Z " fill="#2A735B" transform="translate(805,362)"/>
<path d="M0 0 C-2.74837849 0.53107314 -5.49812375 1.05015881 -8.25 1.5625 C-9.02730469 1.71396484 -9.80460938 1.86542969 -10.60546875 2.02148438 C-11.35957031 2.16005859 -12.11367188 2.29863281 -12.890625 2.44140625 C-13.58188477 2.57232666 -14.27314453 2.70324707 -14.98535156 2.83813477 C-17.21287942 3.01710362 -18.87506962 2.65206197 -21 2 C-17.42502309 -0.38331794 -15.31615977 -0.41523007 -11.0625 -0.6875 C-9.83660156 -0.77386719 -8.61070312 -0.86023438 -7.34765625 -0.94921875 C-4.52647247 -0.99201384 -2.65591473 -0.74626316 0 0 Z " fill="#317661" transform="translate(775,581)"/>
<path d="M0 0 C1.32 0.33 2.64 0.66 4 1 C1.66666667 3.33333333 -0.66666667 5.66666667 -3 8 C-3.99 7.67 -4.98 7.34 -6 7 C-4.02 4.69 -2.04 2.38 0 0 Z " fill="#357D66" transform="translate(824,342)"/>
<path d="M0 0 C0.99 0.33 1.98 0.66 3 1 C-1.33333333 5.33333333 -5.66666667 9.66666667 -10 14 C-10.66 13.67 -11.32 13.34 -12 13 C-11.46890625 12.48050781 -10.9378125 11.96101562 -10.390625 11.42578125 C-6.68949647 7.77192991 -3.12841559 4.17122079 0 0 Z " fill="#4B565B" transform="translate(496,199)"/>
<path d="M0 0 C3.93673644 1.31224548 6.22719294 2.91910327 9 6 C8.34 6 7.68 6 7 6 C6.67 6.66 6.34 7.32 6 8 C5.01 7.34 4.02 6.68 3 6 C3 5.34 3 4.68 3 4 C2.01 3.67 1.02 3.34 0 3 C0 2.01 0 1.02 0 0 Z " fill="#7BB99F" transform="translate(370,780)"/>
<path d="M0 0 C0.33 0.99 0.66 1.98 1 3 C-1.64 5.64 -4.28 8.28 -7 11 C-7.66 10.67 -8.32 10.34 -9 10 C-6.03 6.7 -3.06 3.4 0 0 Z " fill="#294D4E" transform="translate(646,677)"/>
<path d="M0 0 C0.66 0.33 1.32 0.66 2 1 C1.34 1.66 0.68 2.32 0 3 C-0.39764263 4.98821313 -0.73775349 6.98944339 -1 9 C-2.32 7.68 -3.64 6.36 -5 5 C-3.35 3.35 -1.7 1.7 0 0 Z " fill="#3D715B" transform="translate(300,630)"/>
<path d="M0 0 C0.33 0.99 0.66 1.98 1 3 C-0.40445835 5.2636564 -2.1967913 7.0208685 -4 9 C-4.66 8.67 -5.32 8.34 -6 8 C-4.02 5.36 -2.04 2.72 0 0 Z " fill="#87B7A5" transform="translate(734,642)"/>
<path d="M0 0 C3.125 -0.1875 3.125 -0.1875 6 0 C4.8125 1.5 4.8125 1.5 3 3 C0.3125 3.1875 0.3125 3.1875 -2 3 C-1.34 2.01 -0.68 1.02 0 0 Z M1 3 C1.99 3.495 1.99 3.495 3 4 C2.01 4.495 2.01 4.495 1 5 C1 4.34 1 3.68 1 3 Z " fill="#2A785B" transform="translate(312,621)"/>
<path d="M0 0 C0.33 0.66 0.66 1.32 1 2 C-1.47812494 5.45167403 -2.79606135 7.23163306 -7 8 C-6.02133662 6.85373678 -5.04205413 5.70800212 -4.0625 4.5625 C-3.51722656 3.92441406 -2.97195313 3.28632812 -2.41015625 2.62890625 C-1.63204305 1.73008851 -0.84063472 0.84063472 0 0 Z " fill="#2C755D" transform="translate(835,516)"/>
<path d="M0 0 C-1 3 -1 3 -3 4 C-3 5.65 -3 7.3 -3 9 C-3.99 8.34 -4.98 7.68 -6 7 C-5.37162381 3.35541809 -4.14650034 0 0 0 Z " fill="#3E7967" transform="translate(637,424)"/>
<path d="M0 0 C0.33 0.66 0.66 1.32 1 2 C-1.47812494 5.45167403 -2.79606135 7.23163306 -7 8 C-6.02133662 6.85373678 -5.04205413 5.70800212 -4.0625 4.5625 C-3.51722656 3.92441406 -2.97195313 3.28632813 -2.41015625 2.62890625 C-1.63204305 1.73008851 -0.84063472 0.84063472 0 0 Z " fill="#30785E" transform="translate(791,376)"/>
<path d="M0 0 C-1.04874998 2.62187494 -1.64931313 3.79371361 -4.125 5.25 C-4.74375 5.4975 -5.3625 5.745 -6 6 C-5.6875 4.125 -5.6875 4.125 -5 2 C-2 0 -2 0 0 0 Z " fill="#324E52" transform="translate(552,760)"/>
<path d="M0 0 C0.66 0.66 1.32 1.32 2 2 C-0.31 3.65 -2.62 5.3 -5 7 C-5.33 6.01 -5.66 5.02 -6 4 C-4.02 3.34 -2.04 2.68 0 2 C0 1.34 0 0.68 0 0 Z " fill="#C14A58" transform="translate(461,505)"/>
<path d="M0 0 C0.99 0 1.98 0 3 0 C3.33 2.31 3.66 4.62 4 7 C3.01 7.495 3.01 7.495 2 8 C1.34 5.36 0.68 2.72 0 0 Z " fill="#42846F" transform="translate(582,464)"/>
<path d="M0 0 C0.33 3.3 0.66 6.6 1 10 C-1.6855594 7.3144406 -2.06049974 4.62378672 -3 1 C-1 0 -1 0 0 0 Z " fill="#29725C" transform="translate(867,369)"/>
<path d="M0 0 C3.63 0.33 7.26 0.66 11 1 C11 1.33 11 1.66 11 2 C7.37 2.33 3.74 2.66 0 3 C0 2.01 0 1.02 0 0 Z " fill="#458671" transform="translate(714,289)"/>
</svg>
